# xmcd
#
# Track frame offsets: 
#        150
#        21655
#        47467
#        79923
#
# Disc length: 1505 seconds
#
# Revision: 0
# Processed by: cddbd v1.5.2PL0 Copyright (c) Steve Scherf et al.
# Submitted via: ExactAudioCopyFreeDBPlugin 1.0
#
DISCID=2b05df04
DTITLE=Estelle - American Boy (Promo)
DYEAR=2007
DGENRE=House
TTITLE0=American Boy (Version Album)
TTITLE1=American Boy (TS7 Remix)
TTITLE2=American Boy (Soulseekerz Remix)
TTITLE3=American Boy (Soulseekerz Dub Mix)
EXTD=
EXTT0=
EXTT1=
EXTT2=
EXTT3=
PLAYORDER=
